<svg width="1440" height="34" viewBox="0 0 1440 34" fill="none" xmlns="http://www.w3.org/2000/svg">
<g clip-path="url(#clip0_1_678)">
<path d="M663.85 28.0398C670.87 28.0398 674.71 22.2498 674.71 17.2398L674.7 16.7398C675.446 16.2026 676.092 15.5393 676.61 14.7798C675.91 15.0798 675.17 15.2898 674.41 15.3698C675.21 14.8998 675.81 14.1498 676.09 13.2698C675.35 13.7098 674.52 14.0298 673.67 14.1998C672.975 13.4635 672.017 13.0323 671.005 13.0004C669.993 12.9686 669.01 13.3387 668.27 14.0298C667.784 14.4849 667.426 15.06 667.233 15.6973C667.04 16.3346 667.018 17.0114 667.17 17.6598C665.654 17.5856 664.171 17.1949 662.816 16.5129C661.46 15.8308 660.263 14.8726 659.3 13.6998C658.81 14.5336 658.66 15.5238 658.879 16.4655C659.099 17.4073 659.672 18.2287 660.48 18.7598C659.871 18.7461 659.273 18.5848 658.74 18.2898V18.3298C658.744 19.2101 659.051 20.0621 659.611 20.7417C660.17 21.4214 660.947 21.887 661.81 22.0598C661.25 22.2098 660.66 22.2298 660.08 22.1198C660.33 22.8746 660.807 23.5336 661.446 24.0063C662.085 24.479 662.855 24.7422 663.65 24.7598C662.046 26.0049 660.016 26.5689 658 26.3298C659.745 27.4496 661.776 28.0433 663.85 28.0398Z" fill="#1C1C1C"/>
</g>
<g clip-path="url(#clip1_1_678)">
<path d="M766.74 12.05C767.62 12.09 768.22 12.23 768.75 12.44C769.307 12.6441 769.809 12.9724 770.22 13.4C770.69 13.86 770.97 14.32 771.18 14.87C771.39 15.4 771.53 16 771.57 16.89C771.61 17.77 771.62 18.05 771.62 20.31C771.62 22.57 771.61 22.85 771.57 23.74C771.557 24.4307 771.425 25.114 771.18 25.76C770.973 26.3154 770.645 26.8176 770.22 27.23C769.76 27.69 769.3 27.98 768.75 28.19C768.22 28.39 767.62 28.53 766.74 28.57C765.85 28.62 765.57 28.62 763.31 28.62C761.05 28.62 760.77 28.62 759.88 28.57C759.194 28.5548 758.515 28.4264 757.87 28.19C757.315 27.9826 756.81 27.6583 756.391 27.239C755.972 26.8198 755.647 26.3154 755.44 25.76C755.195 25.114 755.063 24.4307 755.05 23.74C755.01 22.85 755 22.57 755 20.31C755 18.05 755.01 17.77 755.05 16.89C755.09 16 755.23 15.4 755.44 14.87C755.644 14.3159 755.969 13.8139 756.39 13.4C756.86 12.93 757.32 12.65 757.87 12.44C758.512 12.1948 759.193 12.0629 759.88 12.05C760.77 12.01 761.05 12 763.31 12C765.57 12 765.85 12.01 766.74 12.05ZM763.31 13.5C761.09 13.5 760.83 13.51 759.95 13.55C759.14 13.58 758.7 13.72 758.41 13.83C758.047 13.9624 757.718 14.1724 757.445 14.4453C757.172 14.7182 756.962 15.0475 756.83 15.41C756.72 15.7 756.58 16.14 756.55 16.95C756.5 18.0693 756.484 19.1898 756.5 20.31C756.5 22.53 756.51 22.79 756.55 23.67C756.58 24.48 756.72 24.92 756.83 25.21C756.98 25.6 757.16 25.88 757.45 26.17C757.74 26.46 758.02 26.64 758.41 26.79C758.7 26.91 759.14 27.04 759.95 27.08C760.83 27.12 761.09 27.13 763.31 27.13C765.53 27.13 765.79 27.12 766.67 27.08C767.196 27.0752 767.718 26.977 768.21 26.79C768.6 26.64 768.88 26.46 769.17 26.17C769.46 25.88 769.64 25.6 769.79 25.21C769.9 24.92 770.04 24.48 770.07 23.67C770.11 22.79 770.12 22.53 770.12 20.31C770.12 18.09 770.11 17.83 770.07 16.95C770.067 16.4243 769.972 15.9031 769.79 15.41C769.658 15.0475 769.448 14.7182 769.175 14.4453C768.902 14.1724 768.573 13.9624 768.21 13.83C767.717 13.6478 767.196 13.5531 766.67 13.55C765.551 13.5004 764.43 13.4838 763.31 13.5Z" fill="#1C1C1C"/>
<path d="M763.35 23.18C762.601 23.18 761.882 22.8824 761.352 22.3526C760.823 21.8228 760.525 21.1042 760.525 20.355C760.525 19.6057 760.823 18.8872 761.352 18.3574C761.882 17.8276 762.601 17.53 763.35 17.53C763.735 17.5071 764.121 17.5631 764.484 17.6947C764.846 17.8263 765.178 18.0307 765.459 18.2953C765.74 18.5599 765.963 18.879 766.116 19.2332C766.269 19.5875 766.348 19.9692 766.348 20.355C766.348 20.7408 766.269 21.1225 766.116 21.4767C765.963 21.8309 765.74 22.1501 765.459 22.4147C765.178 22.6793 764.846 22.8836 764.484 23.0152C764.121 23.1468 763.735 23.2029 763.35 23.18ZM759 20.35C758.972 20.9394 759.063 21.5285 759.27 22.0815C759.476 22.6345 759.792 23.1398 760.199 23.567C760.606 23.9942 761.096 24.3342 761.638 24.5666C762.181 24.7989 762.765 24.9187 763.355 24.9187C763.945 24.9187 764.529 24.7989 765.072 24.5666C765.614 24.3342 766.104 23.9942 766.511 23.567C766.918 23.1398 767.234 22.6345 767.44 22.0815C767.647 21.5285 767.738 20.9394 767.71 20.35C767.656 19.2311 767.174 18.1757 766.363 17.4028C765.552 16.6299 764.475 16.1987 763.355 16.1987C762.235 16.1987 761.158 16.6299 760.347 17.4028C759.536 18.1757 759.054 19.2311 759 20.35Z" fill="#1C1C1C"/>
<path d="M769.37 17.19C769.367 17.5031 769.243 17.8028 769.022 18.0251C768.802 18.2474 768.503 18.3748 768.19 18.38C767.901 18.3424 767.635 18.201 767.443 17.982C767.251 17.763 767.145 17.4815 767.145 17.19C767.145 16.8985 767.251 16.617 767.443 16.398C767.635 16.179 767.901 16.0376 768.19 16C768.84 16 769.37 16.53 769.37 17.19Z" fill="#1C1C1C"/>
</g>
<g clip-path="url(#clip2_1_678)">
<path d="M623.86 16.8302H627.29V20.2402H623.86V28.2102H620.43V20.2402H617V16.8302H620.43V15.4002C620.43 14.0502 620.86 12.3402 621.71 11.4002C622.107 10.9504 622.597 10.5922 623.146 10.3505C623.695 10.1087 624.29 9.98922 624.89 10.0002H627.29V13.4102H624.89C624.32 13.4102 623.86 13.8702 623.86 14.4402V16.8302Z" fill="#1C1C1C"/>
</g>
<g clip-path="url(#clip3_1_678)">
<path d="M824.37 20.71V22.33C824.37 24.06 824.15 25.79 824.15 25.79C824.15 25.79 823.95 27.26 823.31 27.91C822.49 28.76 821.58 28.77 821.16 28.82C818.17 29.04 813.68 29.04 813.68 29.04C813.68 29.04 808.13 28.99 806.42 28.83C805.94 28.74 804.88 28.76 804.06 27.91C803.42 27.26 803.21 25.79 803.21 25.79C803.21 25.79 803 24.06 803 22.33V20.71C803 18.98 803.21 17.24 803.21 17.24C803.21 17.24 803.42 15.77 804.06 15.12C804.88 14.27 805.79 14.27 806.2 14.22C809.19 14 813.68 14 813.68 14H813.69C813.69 14 818.17 14 821.16 14.22C821.58 14.27 822.49 14.27 823.31 15.12C823.95 15.77 824.15 17.24 824.15 17.24C824.15 17.24 824.37 18.98 824.37 20.71ZM818.04 21.53L811.71 18.75V24.29L818.04 21.53Z" fill="#1C1C1C"/>
</g>
<path d="M707.27 16.78H710.68V28.42H707.27V16.78ZM710.96 13.1C710.96 14.25 710.07 15.2 708.98 15.2C707.88 15.2 707 14.25 707 13.1C707 11.94 707.88 11 708.98 11C710.07 11 710.96 11.94 710.96 13.1Z" fill="#1C1C1C"/>
<path d="M713 16.28H716.4V17.87H716.45C716.788 17.281 717.281 16.7956 717.875 16.466C718.469 16.1365 719.141 15.9754 719.82 16C723.41 16 724.08 18.4 724.08 21.52V27.88H720.53V22.24C720.53 20.89 720.51 19.16 718.69 19.16C716.83 19.16 716.56 20.63 716.56 22.14V27.88H713.01L713 16.28Z" fill="#1C1C1C"/>
<defs>
<clipPath id="clip0_1_678">
<rect width="19" height="16" fill="white" transform="translate(658 13)"/>
</clipPath>
<clipPath id="clip1_1_678">
<rect width="17" height="17" fill="white" transform="translate(755 12)"/>
</clipPath>
<clipPath id="clip2_1_678">
<rect width="11" height="19" fill="white" transform="translate(617 10)"/>
</clipPath>
<clipPath id="clip3_1_678">
<rect width="22" height="16" fill="white" transform="translate(802 13)"/>
</clipPath>
</defs>
</svg>
